<?xml version="1.0" encoding="UTF-8" standalone="no"?>
<!-- Created with Inkscape (http://www.inkscape.org/) -->

<svg
   width="2560"
   height="1440"
   viewBox="0 0 2560 1440"
   version="1.1"
   id="svg1"
   xml:space="preserve"
   inkscape:version="1.3.2 (091e20ef0f, 2023-11-25)"
   sodipodi:docname="wallpaper_pc_small_dark.svg"
   xmlns:inkscape="http://www.inkscape.org/namespaces/inkscape"
   xmlns:sodipodi="http://sodipodi.sourceforge.net/DTD/sodipodi-0.dtd"
   xmlns:xlink="http://www.w3.org/1999/xlink"
   xmlns="http://www.w3.org/2000/svg"
   xmlns:svg="http://www.w3.org/2000/svg"><sodipodi:namedview
     id="namedview1"
     pagecolor="#505050"
     bordercolor="#eeeeee"
     borderopacity="1"
     inkscape:showpageshadow="0"
     inkscape:pageopacity="0"
     inkscape:pagecheckerboard="0"
     inkscape:deskcolor="#505050"
     inkscape:document-units="px"
     showgrid="true"
     inkscape:zoom="0.22621893"
     inkscape:cx="1509.5996"
     inkscape:cy="844.31484"
     inkscape:window-width="1280"
     inkscape:window-height="717"
     inkscape:window-x="0"
     inkscape:window-y="0"
     inkscape:window-maximized="1"
     inkscape:current-layer="svg1" /><defs
     id="defs1"><linearGradient
       id="linearGradient16"
       inkscape:collect="always"><stop
         style="stop-color:#1a1a1a;stop-opacity:0;"
         offset="0"
         id="stop17" /><stop
         style="stop-color:#1a1a1a;stop-opacity:1;"
         offset="1"
         id="stop16" /></linearGradient><rect
       x="737.68009"
       y="580.14165"
       width="1159.6581"
       height="231.93156"
       id="rect1" /><rect
       x="648"
       y="549.8822"
       width="501.96824"
       height="164.35467"
       id="rect35" /><linearGradient
       inkscape:collect="always"
       xlink:href="#linearGradient16"
       id="linearGradient17"
       x1="1444.8771"
       y1="724.46027"
       x2="2394.3982"
       y2="724.46027"
       gradientUnits="userSpaceOnUse"
       spreadMethod="pad"
       gradientTransform="matrix(0.5625,0,0,1.7777778,0,-2560)" /><linearGradient
       inkscape:collect="always"
       xlink:href="#linearGradient16"
       id="linearGradient18"
       gradientUnits="userSpaceOnUse"
       gradientTransform="matrix(0.5625,0,0,1.7777778,-1440,0)"
       x1="1733.8527"
       y1="724.46027"
       x2="2394.3982"
       y2="724.46027"
       spreadMethod="pad" /></defs><rect
     style="fill:#1a1a1a"
     id="rect13"
     width="2560"
     height="1440"
     x="0"
     y="0"
     transform="translate(-1.7479044e-6)" /><g
     id="g2"
     transform="matrix(0.71684979,0,0,0.71684979,383.33799,203.86815)"><g
       id="g35"
       transform="matrix(0.76115343,0,0,0.76115343,154.77258,-355.5098)"><g
         inkscape:label="Layer 1"
         id="g28"
         transform="matrix(0.42187519,0,0,0.42187519,432,1189.5)"><path
           id="path27"
           style="display:inline;fill:#ffffff;fill-opacity:1;stroke-width:0.264583"
           d="M 0,0 V 511.99976 H 511.99976 V 0 Z" /><path
           id="path28"
           style="display:inline;fill:#1a1a1a;fill-opacity:1;stroke-width:0.264583"
           d="m 64.000228,32.000114 v 16.000057 l 391.999842,391.999849 8.00003,8.00002 h 16.00006 V 431.99999 48.000171 32.000114 H 464.0001 l -8.00003,8.000028 v 0.666626 L 279.68009,231.67992 79.999768,32.000114 Z M 32.000114,64.000228 v 15.99954 L 231.67992,279.68009 32.000114,464.0001 v 16.00006 H 48.000171 L 247.67997,295.68014 431.99999,480.00016 h 16.00005 V 464.0001 L 48.000171,64.000228 Z M 456.00007,74.000134 V 407.9999 L 295.68014,247.67997 Z" /></g><g
         inkscape:label="Layer 1"
         id="g30"
         transform="matrix(0.42187519,0,0,0.42187519,432,727.49999)"><path
           id="path29"
           style="display:inline;fill:#1a1a1a;fill-opacity:1;stroke-width:0.264583"
           d="M 0,0 V 511.99976 H 511.99976 V 0 Z" /><path
           id="path30"
           style="display:inline;fill:#ffffff;fill-opacity:1;stroke-width:0.264583"
           d="m 64.000228,32.000114 v 16.000057 l 391.999842,391.999849 8.00003,8.00002 h 16.00006 V 431.99999 48.000171 32.000114 H 464.0001 l -8.00003,8.000028 v 0.666626 L 279.68009,231.67992 79.999768,32.000114 Z M 32.000114,64.000228 v 15.99954 L 231.67992,279.68009 32.000114,464.0001 v 16.00006 H 48.000171 L 247.67997,295.68014 431.99999,480.00016 h 16.00005 V 464.0001 L 48.000171,64.000228 Z M 456.00007,74.000134 V 407.9999 L 295.68014,247.67997 Z" /></g><g
         inkscape:label="Layer 1"
         id="g32"
         transform="matrix(0.42187519,0,0,0.42187519,432,958.49999)"><path
           id="path31"
           style="display:inline;fill:#1a1a1a;fill-opacity:1;stroke-width:0.264583"
           d="M 0,0 V 511.99976 H 511.99976 V 0 Z" /><path
           id="path32"
           style="display:inline;fill:#ffffff;fill-opacity:1;stroke-width:0.264583"
           d="m 64.000228,32.000114 v 16.000057 l 391.999842,391.999849 8.00003,8.00002 h 16.00006 V 431.99999 48.000171 32.000114 H 464.0001 l -8.00003,8.000028 v 0.666626 L 279.68009,231.67992 79.999768,32.000114 Z M 32.000114,64.000228 v 15.99954 L 231.67992,279.68009 32.000114,464.0001 v 16.00006 H 48.000171 L 247.67997,295.68014 431.99999,480.00016 h 16.00005 V 464.0001 L 48.000171,64.000228 Z M 456.00007,74.000134 V 407.9999 L 295.68014,247.67997 Z" /></g><g
         inkscape:label="Layer 1"
         id="g34"
         transform="matrix(0.42187519,0,0,0.42187519,432,496.49999)"><path
           id="path33"
           style="display:inline;fill:#1a1a1a;fill-opacity:1;stroke-width:0.264583"
           d="M 0,0 V 511.99976 H 511.99976 V 0 Z" /><path
           id="path34"
           style="display:inline;fill:#ffffff;fill-opacity:1;stroke-width:0.264583"
           d="m 64.000228,32.000114 v 16.000057 l 391.999842,391.999849 8.00003,8.00002 h 16.00006 V 431.99999 48.000171 32.000114 H 464.0001 l -8.00003,8.000028 v 0.666626 L 279.68009,231.67992 79.999768,32.000114 Z M 32.000114,64.000228 v 15.99954 L 231.67992,279.68009 32.000114,464.0001 v 16.00006 H 48.000171 L 247.67997,295.68014 431.99999,480.00016 h 16.00005 V 464.0001 L 48.000171,64.000228 Z M 456.00007,74.000134 V 407.9999 L 295.68014,247.67997 Z" /></g><g
         inkscape:label="Layer 1"
         id="layer1-5"
         transform="matrix(0.42187519,0,0,0.42187519,432,1420.5)"><path
           id="rect7"
           style="display:inline;fill:#1a1a1a;fill-opacity:1;stroke-width:0.264583"
           d="M 0,0 V 511.99976 H 511.99976 V 0 Z" /><path
           id="path1"
           style="display:inline;fill:#ffffff;fill-opacity:1;stroke-width:0.264583"
           d="m 64.000228,32.000114 v 16.000057 l 391.999842,391.999849 8.00003,8.00002 h 16.00006 V 431.99999 48.000171 32.000114 H 464.0001 l -8.00003,8.000028 v 0.666626 L 279.68009,231.67992 79.999768,32.000114 Z M 32.000114,64.000228 v 15.99954 L 231.67992,279.68009 32.000114,464.0001 v 16.00006 H 48.000171 L 247.67997,295.68014 431.99999,480.00016 h 16.00005 V 464.0001 L 48.000171,64.000228 Z M 456.00007,74.000134 V 407.9999 L 295.68014,247.67997 Z" /></g><g
         inkscape:label="Layer 1"
         id="g14"
         transform="matrix(0.42187519,0,0,0.42187519,432,1651.5)"><path
           id="path13"
           style="display:inline;fill:#1a1a1a;fill-opacity:1;stroke-width:0.264583"
           d="M 0,0 V 511.99976 H 511.99976 V 0 Z" /><path
           id="path14"
           style="display:inline;fill:#ffffff;fill-opacity:1;stroke-width:0.264583"
           d="m 64.000228,32.000114 v 16.000057 l 391.999842,391.999849 8.00003,8.00002 h 16.00006 V 431.99999 48.000171 32.000114 H 464.0001 l -8.00003,8.000028 v 0.666626 L 279.68009,231.67992 79.999768,32.000114 Z M 32.000114,64.000228 v 15.99954 L 231.67992,279.68009 32.000114,464.0001 v 16.00006 H 48.000171 L 247.67997,295.68014 431.99999,480.00016 h 16.00005 V 464.0001 L 48.000171,64.000228 Z M 456.00007,74.000134 V 407.9999 L 295.68014,247.67997 Z" /></g><g
         inkscape:label="Layer 1"
         id="g16"
         transform="matrix(0.42187519,0,0,0.42187519,432,1882.5)"><path
           id="path15"
           style="display:inline;fill:#1a1a1a;fill-opacity:1;stroke-width:0.264583"
           d="M 0,0 V 511.99976 H 511.99976 V 0 Z" /><path
           id="path16"
           style="display:inline;fill:#ffffff;fill-opacity:1;stroke-width:0.264583"
           d="m 64.000228,32.000114 v 16.000057 l 391.999842,391.999849 8.00003,8.00002 h 16.00006 V 431.99999 48.000171 32.000114 H 464.0001 l -8.00003,8.000028 v 0.666626 L 279.68009,231.67992 79.999768,32.000114 Z M 32.000114,64.000228 v 15.99954 L 231.67992,279.68009 32.000114,464.0001 v 16.00006 H 48.000171 L 247.67997,295.68014 431.99999,480.00016 h 16.00005 V 464.0001 L 48.000171,64.000228 Z M 456.00007,74.000134 V 407.9999 L 295.68014,247.67997 Z" /></g><g
         inkscape:label="Layer 1"
         id="g18"
         transform="matrix(0.42187519,0,0,0.42187519,432,2113.5)"><path
           id="path17"
           style="display:inline;fill:#1a1a1a;fill-opacity:1;stroke-width:0.264583"
           d="M 0,0 V 511.99976 H 511.99976 V 0 Z" /><path
           id="path18"
           style="display:inline;fill:#ffffff;fill-opacity:1;stroke-width:0.264583"
           d="m 64.000228,32.000114 v 16.000057 l 391.999842,391.999849 8.00003,8.00002 h 16.00006 V 431.99999 48.000171 32.000114 H 464.0001 l -8.00003,8.000028 v 0.666626 L 279.68009,231.67992 79.999768,32.000114 Z M 32.000114,64.000228 v 15.99954 L 231.67992,279.68009 32.000114,464.0001 v 16.00006 H 48.000171 L 247.67997,295.68014 431.99999,480.00016 h 16.00005 V 464.0001 L 48.000171,64.000228 Z M 456.00007,74.000134 V 407.9999 L 295.68014,247.67997 Z" /></g></g><g
       id="g15"
       transform="translate(-4.7987267,-0.83686078)"><text
         xml:space="preserve"
         style="font-style:normal;font-variant:normal;font-weight:normal;font-stretch:normal;font-size:315.53px;font-family:Cybanin3000;-inkscape-font-specification:Cybanin3000;display:inline;fill:none;stroke:#ffffff;stroke-width:3.28677"
         x="760.52905"
         y="163.10641"
         id="text2"
         inkscape:label="text1"
         transform="scale(0.94199231,1.0615798)"><tspan
           sodipodi:role="line"
           id="tspan2"
           x="760.52905"
           y="163.10641"
           style="fill:none;stroke:#ffffff;stroke-width:3.28677">metatobac</tspan></text><text
         xml:space="preserve"
         style="font-style:normal;font-variant:normal;font-weight:normal;font-stretch:normal;font-size:315.53px;font-family:Cybanin3000;-inkscape-font-specification:Cybanin3000;display:inline;fill:none;stroke:#ffffff;stroke-width:3.28677"
         x="760.52905"
         y="332.10239"
         id="text9"
         inkscape:label="text1"
         transform="scale(0.94199231,1.0615798)"><tspan
           sodipodi:role="line"
           id="tspan9"
           x="760.52905"
           y="332.10239"
           style="fill:none;stroke:#ffffff;stroke-width:3.28677">metatobac</tspan></text><text
         xml:space="preserve"
         style="font-style:normal;font-variant:normal;font-weight:normal;font-stretch:normal;font-size:315.53px;font-family:Cybanin3000;-inkscape-font-specification:Cybanin3000;display:inline;fill:none;stroke:#ffffff;stroke-width:3.28677"
         x="760.52905"
         y="501.0983"
         id="text10"
         inkscape:label="text1"
         transform="scale(0.94199231,1.0615798)"><tspan
           sodipodi:role="line"
           id="tspan10"
           x="760.52905"
           y="501.0983"
           style="fill:none;stroke:#ffffff;stroke-width:3.28677">metatobac</tspan></text><text
         xml:space="preserve"
         style="font-style:normal;font-variant:normal;font-weight:normal;font-stretch:normal;font-size:315.53px;font-family:Cybanin3000;-inkscape-font-specification:Cybanin3000;display:inline;fill:#ffffff;stroke:#ffffff;stroke-width:3.28677"
         x="760.52905"
         y="670.09418"
         id="text11"
         inkscape:label="text1"
         transform="scale(0.94199231,1.0615798)"><tspan
           sodipodi:role="line"
           id="tspan11"
           x="760.52905"
           y="670.09418"
           style="stroke:#ffffff;stroke-width:3.28677">metatobac</tspan></text><text
         xml:space="preserve"
         style="font-style:normal;font-variant:normal;font-weight:normal;font-stretch:normal;font-size:315.53px;font-family:Cybanin3000;-inkscape-font-specification:Cybanin3000;display:inline;fill:none;stroke:#ffffff;stroke-width:3.28677"
         x="760.52905"
         y="839.09015"
         id="text12"
         inkscape:label="text1"
         transform="scale(0.94199231,1.0615798)"><tspan
           sodipodi:role="line"
           id="tspan12"
           x="760.52905"
           y="839.09015"
           style="fill:none;stroke:#ffffff;stroke-width:3.28677">metatobac</tspan></text><text
         xml:space="preserve"
         style="font-style:normal;font-variant:normal;font-weight:normal;font-stretch:normal;font-size:315.53px;font-family:Cybanin3000;-inkscape-font-specification:Cybanin3000;display:inline;fill:none;stroke:#ffffff;stroke-width:3.28677"
         x="760.52905"
         y="1008.086"
         id="text13"
         inkscape:label="text1"
         transform="scale(0.94199231,1.0615798)"><tspan
           sodipodi:role="line"
           id="tspan13"
           x="760.52905"
           y="1008.086"
           style="fill:none;stroke:#ffffff;stroke-width:3.28677">metatobac</tspan></text><text
         xml:space="preserve"
         style="font-style:normal;font-variant:normal;font-weight:normal;font-stretch:normal;font-size:315.53px;font-family:Cybanin3000;-inkscape-font-specification:Cybanin3000;display:inline;fill:none;stroke:#ffffff;stroke-width:3.28677"
         x="760.52905"
         y="1177.082"
         id="text14"
         inkscape:label="text1"
         transform="scale(0.94199231,1.0615798)"><tspan
           sodipodi:role="line"
           id="tspan14"
           x="760.52905"
           y="1177.082"
           style="fill:none;stroke:#ffffff;stroke-width:3.28677">metatobac</tspan></text><text
         xml:space="preserve"
         style="font-style:normal;font-variant:normal;font-weight:normal;font-stretch:normal;font-size:315.53px;font-family:Cybanin3000;-inkscape-font-specification:Cybanin3000;display:inline;fill:none;stroke:#ffffff;stroke-width:3.28677"
         x="760.52905"
         y="1346.078"
         id="text15"
         inkscape:label="text1"
         transform="scale(0.94199231,1.0615798)"><tspan
           sodipodi:role="line"
           id="tspan15"
           x="760.52905"
           y="1346.078"
           style="fill:none;stroke:#ffffff;stroke-width:3.28677">metatobac</tspan></text></g></g><g
     id="g1"><rect
       style="fill:url(#linearGradient17);stroke:none;stroke-width:0.999999"
       id="rect16"
       width="1440"
       height="2560"
       x="5.6843419e-14"
       y="-2560"
       transform="rotate(90)" /><rect
       style="display:inline;fill:url(#linearGradient18);stroke:none;stroke-width:0.999999"
       id="rect17"
       width="1440"
       height="2560"
       x="-1440"
       y="0"
       transform="rotate(-90)" /></g></svg>
