<?xml version="1.0" encoding="UTF-8" standalone="no"?>
<!-- Created with Inkscape (http://www.inkscape.org/) -->

<svg
   width="297mm"
   height="420mm"
   viewBox="0 0 1122.5197 1587.4016"
   version="1.1"
   id="svg1"
   inkscape:version="1.3.2 (091e20e, 2023-11-25, custom)"
   sodipodi:docname="mtp-001.svg"
   inkscape:export-filename="..\PNGs\mtp-001-blackout.svg"
   inkscape:export-xdpi="96"
   inkscape:export-ydpi="96"
   xmlns:inkscape="http://www.inkscape.org/namespaces/inkscape"
   xmlns:sodipodi="http://sodipodi.sourceforge.net/DTD/sodipodi-0.dtd"
   xmlns="http://www.w3.org/2000/svg"
   xmlns:svg="http://www.w3.org/2000/svg">
  <sodipodi:namedview
     id="namedview1"
     pagecolor="#505050"
     bordercolor="#eeeeee"
     borderopacity="1"
     inkscape:showpageshadow="0"
     inkscape:pageopacity="0"
     inkscape:pagecheckerboard="0"
     inkscape:deskcolor="#505050"
     inkscape:document-units="mm"
     inkscape:zoom="0.35277778"
     inkscape:cx="541.41732"
     inkscape:cy="732.7559"
     inkscape:window-width="1440"
     inkscape:window-height="837"
     inkscape:window-x="-8"
     inkscape:window-y="-8"
     inkscape:window-maximized="1"
     inkscape:current-layer="layer1"
     showguides="false" />
  <defs
     id="defs1">
    <rect
       x="0"
       y="1451.3308"
       width="1122.5196"
       height="136.07078"
       id="rect31" />
    <rect
       x="0"
       y="325.96059"
       width="1122.5197"
       height="535.3174"
       id="rect4" />
    <rect
       x="63.602067"
       y="331.26077"
       width="1245.5405"
       height="511.46663"
       id="rect3" />
    <rect
       x="0"
       y="1476.098"
       width="1122.5197"
       height="111.30362"
       id="rect2" />
  </defs>
  <g
     inkscape:label="Layer 1"
     inkscape:groupmode="layer"
     id="layer1">
    <rect
       style="fill:#e8e3e3;fill-opacity:1"
       id="rect1"
       width="1122.5197"
       height="1587.4016"
       x="0"
       y="2.8346457" />
    <text
       xml:space="preserve"
       id="text3"
       style="font-style:normal;font-variant:normal;font-weight:normal;font-stretch:normal;font-size:96px;font-family:SorikomiSansSerif;-inkscape-font-specification:SorikomiSansSerif;white-space:pre;shape-inside:url(#rect4);display:inline;fill:#000000;fill-opacity:1"
       transform="translate(214.98753,-37.734788)"><tspan
         x="0"
         y="413.75041"
         id="tspan1">the urge.</tspan></text>
    <path
       id="path25"
       style="stroke-width:0.965092;fill:#000000;fill-opacity:1"
       d="m 801.78783,553.17236 a 170.07875,170.07875 0 0 0 -240.52818,10e-4 170.07875,170.07875 0 0 1 44.15136,77.04287 170.07875,170.07875 0 0 1 76.11204,43.22053 170.07875,170.07875 0 0 1 44.15274,77.04425 170.07875,170.07875 0 0 1 76.11065,43.21914 170.07875,170.07875 0 0 0 10e-4,-240.52817 z m -10e-4,240.52817 a 170.07875,170.07875 0 0 1 -76.11065,43.21912 170.07875,170.07875 0 0 1 -44.15274,77.0443 170.07875,170.07875 0 0 1 -76.11204,43.2205 170.07875,170.07875 0 0 1 -44.15134,77.04285 170.07875,170.07875 0 0 0 240.52815,0 170.07875,170.07875 0 0 0 -0.001,-240.52817 z M 561.26006,1034.2273 a 170.07875,170.07875 0 0 1 -43.43599,-76.82735 170.07875,170.07875 0 0 1 -76.8274,-43.436 170.07875,170.07875 0 0 1 -43.436,-76.8274 170.07875,170.07875 0 0 1 -76.8274,-43.43604 170.07875,170.07875 0 0 0 -10e-4,240.52819 170.07875,170.07875 0 0 0 240.52818,0 z M 320.73288,793.70051 a 170.07875,170.07875 0 0 1 76.8274,-43.43594 170.07875,170.07875 0 0 1 43.43598,-76.82744 170.07875,170.07875 0 0 1 76.82742,-43.43596 170.07875,170.07875 0 0 1 43.43597,-76.82743 170.07875,170.07875 0 0 0 -240.52817,-10e-4 170.07875,170.07875 0 0 0 0.001,240.52815 z m 197.0908,-163.69934 a 170.07875,170.07875 0 0 0 43.43597,163.69936 170.07875,170.07875 0 0 0 44.15136,-163.48392 170.07875,170.07875 0 0 0 -87.58733,-0.21544 z m 43.43597,163.69936 a 170.07875,170.07875 0 0 0 164.41614,43.21912 170.07875,170.07875 0 0 0 0,-86.43826 170.07875,170.07875 0 0 0 -164.41614,43.21914 z m 0,0 a 170.07875,170.07875 0 0 0 -43.43597,163.69942 170.07875,170.07875 0 0 0 87.58733,-0.2155 170.07875,170.07875 0 0 0 -44.15136,-163.48392 z m 0,0 a 170.07875,170.07875 0 0 0 -163.69937,-43.43596 170.07875,170.07875 0 0 0 0,86.87198 170.07875,170.07875 0 0 0 163.69937,-43.43602 z" />
    <text
       xml:space="preserve"
       style="font-style:normal;font-variant:normal;font-weight:normal;font-stretch:normal;font-size:30.4479px;font-family:NocturnalSubway;-inkscape-font-specification:NocturnalSubway;fill:#000000;stroke-width:1.1418;text-anchor:middle;text-align:center;fill-opacity:1"
       x="559.73743"
       y="1484.4691"
       id="text32"><tspan
         sodipodi:role="line"
         id="tspan32"
         x="224.88646"
         y="1484.4691"
         style="fill:#000000;stroke-width:1.1418;text-anchor:middle;text-align:center;fill-opacity:1">mtp-001 - Metatobac 2024 - </tspan><tspan
         sodipodi:role="line"
         x="224.88646"
         y="1522.5291"
         style="fill:#000000;stroke-width:1.1418;text-anchor:middle;text-align:center;fill-opacity:1"
         id="tspan34">freethem - 07</tspan><tspan
         sodipodi:role="line"
         x="224.88646"
         y="1560.5889"
         id="tspan33"
         style="fill:#000000;stroke-width:1.1418;text-anchor:middle;text-align:center;fill-opacity:1">Fonts by Yutaone</tspan></text>
  </g>
</svg>
