<?xml version="1.0" encoding="UTF-8" standalone="no"?>
<!-- Created with Inkscape (http://www.inkscape.org/) -->

<svg
   width="2560"
   height="1440"
   viewBox="0 0 2560 1440"
   version="1.1"
   id="svg1"
   inkscape:export-filename="ballz.png"
   inkscape:export-xdpi="96"
   inkscape:export-ydpi="96"
   inkscape:version="1.3.2 (091e20e, 2023-11-25, custom)"
   sodipodi:docname="FrostBlobTemplate.svg"
   xmlns:inkscape="http://www.inkscape.org/namespaces/inkscape"
   xmlns:sodipodi="http://sodipodi.sourceforge.net/DTD/sodipodi-0.dtd"
   xmlns="http://www.w3.org/2000/svg"
   xmlns:svg="http://www.w3.org/2000/svg">
  <sodipodi:namedview
     id="namedview1"
     pagecolor="#505050"
     bordercolor="#eeeeee"
     borderopacity="1"
     inkscape:showpageshadow="0"
     inkscape:pageopacity="0"
     inkscape:pagecheckerboard="0"
     inkscape:deskcolor="#505050"
     inkscape:document-units="px"
     inkscape:zoom="0.26875"
     inkscape:cx="1281.8605"
     inkscape:cy="742.32558"
     inkscape:window-width="1440"
     inkscape:window-height="877"
     inkscape:window-x="-8"
     inkscape:window-y="-8"
     inkscape:window-maximized="1"
     inkscape:current-layer="layer1" />
  <defs
     id="defs1" />
  <g
     inkscape:label="Layer 1"
     inkscape:groupmode="layer"
     id="layer1">
    <rect
       style="fill:#000000"
       id="rect3"
       width="2560"
       height="1440"
       x="0"
       y="0"
       ry="0" />
    <path
       style="fill:#003380;fill-opacity:1"
       d="m 126.51163,0 c 18.23816,14.710767 47.51545,19.749779 70.69767,22.325581 43.5361,4.837345 100.10396,-9.482902 141.39535,11.162791 108.60702,54.303509 9.77156,316.850748 152.55814,427.906978 72.0192,56.01493 180.82221,9.67013 264.18605,33.48837 91.75458,26.2156 129.74529,101.43472 208.37209,145.11628 59.61447,33.11916 162.25137,8.79267 197.20927,29.76744 101.8657,61.1194 292.9235,411.76176 271.6279,539.53486 -4.3548,26.129 -25.652,43.8622 -37.2093,66.9768 -86.7001,173.4003 -143.9285,217.1554 -305.1162,327.4418 -102.01724,69.8013 -195.81025,38.769 -312.55818,22.3256 -135.03578,-19.0191 -269.78865,-39.2824 -405.5814,-52.093 -78.82159,-7.436 -367.0743573,-5.8749 -431.627904,-63.2558 -25.083655,-22.2966 -66.134636,-52.4455 -74.418606,-85.5814 -13.60198,-54.4079 -3.866,-54.2691 -7.44186,-107.907 -10.55196,-158.2794 -16.85551,-318.10786 -29.76744,-476.27907 C -191.67743,589.62589 -230.49741,163.37046 -96.744186,-70.697674 -37.802727,-173.84523 157.66797,-124.62538 126.51163,0 Z"
       id="path5" />
    <path
       style="fill:#620091;fill-opacity:1"
       d="m 1678.1395,-212.09302 c 54.9837,85.59516 191.9062,76.50514 245.5814,159.999997 79.9247,124.32734 -85.389,398.524363 0,569.302323 75.1883,150.37648 252.2109,191.68014 338.6047,327.44186 70.7598,111.19398 73.0681,401.72694 104.186,539.53484 17.2287,76.2986 48.1504,337.922 148.8372,349.7675 37.1407,4.3695 111.2211,-333.3989 130.2326,-386.9768 43.4104,-122.3383 123.0016,-234.2594 152.5581,-360.93019 C 2852.8886,751.40765 2837.3479,160.18476 2686.5116,-40.930233 2528.0915,-252.157 2109.2844,-233.88462 1875.3488,-245.5814 c -88.06,-4.403 -228.1771,-63.27977 -308.8372,-14.88372 -9.5127,5.70765 19.845,9.92248 29.7675,14.88372 27.9582,13.97911 48.6013,33.48838 81.8604,33.48838 z"
       id="path6" />
  </g>
</svg>
