<?xml version="1.0" encoding="UTF-8" standalone="no"?>
<!-- Created with Inkscape (http://www.inkscape.org/) -->

<svg
   width="42cm"
   height="42cm"
   viewBox="0 0 1587.4016 1587.4016"
   version="1.1"
   id="svg1"
   inkscape:version="1.3.2 (091e20e, 2023-11-25, custom)"
   sodipodi:docname="mtp-001-sticker.svg"
   inkscape:export-filename="..\PNGs\mtp-001-blackout.svg"
   inkscape:export-xdpi="96"
   inkscape:export-ydpi="96"
   xmlns:inkscape="http://www.inkscape.org/namespaces/inkscape"
   xmlns:sodipodi="http://sodipodi.sourceforge.net/DTD/sodipodi-0.dtd"
   xmlns="http://www.w3.org/2000/svg"
   xmlns:svg="http://www.w3.org/2000/svg">
  <sodipodi:namedview
     id="namedview1"
     pagecolor="#505050"
     bordercolor="#eeeeee"
     borderopacity="1"
     inkscape:showpageshadow="0"
     inkscape:pageopacity="0"
     inkscape:pagecheckerboard="0"
     inkscape:deskcolor="#505050"
     inkscape:document-units="mm"
     inkscape:zoom="0.35277778"
     inkscape:cx="555.59055"
     inkscape:cy="766.77165"
     inkscape:window-width="1440"
     inkscape:window-height="837"
     inkscape:window-x="-8"
     inkscape:window-y="-8"
     inkscape:window-maximized="1"
     inkscape:current-layer="layer1"
     showguides="false" />
  <defs
     id="defs1">
    <rect
       x="0"
       y="1451.3308"
       width="1122.5197"
       height="136.07079"
       id="rect31" />
    <rect
       x="0"
       y="325.9606"
       width="1122.5197"
       height="535.31738"
       id="rect4" />
    <rect
       x="63.602066"
       y="331.26077"
       width="1245.5405"
       height="511.46664"
       id="rect3" />
    <rect
       x="0"
       y="1476.098"
       width="1122.5197"
       height="111.30362"
       id="rect2" />
  </defs>
  <g
     inkscape:label="Layer 1"
     inkscape:groupmode="layer"
     id="layer1">
    <rect
       style="fill:#e8e3e3;fill-opacity:1"
       id="rect1"
       width="1587.4016"
       height="1584.5669"
       x="0"
       y="2.8346457"
       ry="82.20472" />
    <path
       id="path25"
       style="fill:#000000;fill-opacity:1;stroke-width:1.88446"
       d="m 1263.3575,324.04103 a 332.09793,332.09868 0 0 0 -469.65829,0.001 332.09793,332.09868 0 0 1 86.21051,150.43522 332.09793,332.09868 0 0 1 148.61738,84.39315 332.09793,332.09868 0 0 1 86.2132,150.43793 332.09793,332.09868 0 0 1 148.6145,84.39042 332.09793,332.09868 0 0 0 0,-469.65943 z m 0,469.65941 a 332.09793,332.09868 0 0 1 -148.6145,84.39041 332.09793,332.09868 0 0 1 -86.2132,150.43795 332.09793,332.09868 0 0 1 -148.61734,84.3931 332.09793,332.09868 0 0 1 -86.21048,150.4353 332.09793,332.09868 0 0 0 469.65822,0 332.09793,332.09868 0 0 0 0,-469.65948 z M 793.70001,1263.3572 A 332.09793,332.09868 0 0 1 708.88635,1113.3427 332.09793,332.09868 0 0 1 558.8722,1028.5288 332.09793,332.09868 0 0 1 474.05851,878.51439 332.09793,332.09868 0 0 1 324.04435,793.70041 a 332.09793,332.09868 0 0 0 -0.001,469.65959 332.09793,332.09868 0 0 0 469.6584,0 z M 324.04358,793.70041 a 332.09793,332.09868 0 0 1 150.01416,-84.81376 332.09793,332.09868 0 0 1 84.81365,-150.01457 332.09793,332.09868 0 0 1 150.0142,-84.81381 332.09793,332.09868 0 0 1 84.81362,-150.01456 332.09793,332.09868 0 0 0 -469.65836,-10e-4 332.09793,332.09868 0 0 0 0.001,469.6594 z M 708.88559,474.05827 a 332.09793,332.09868 0 0 0 84.81362,319.64217 332.09793,332.09868 0 0 0 86.21051,-319.22149 332.09793,332.09868 0 0 0 -171.02413,-0.42068 z m 84.81362,319.64217 a 332.09793,332.09868 0 0 0 321.04109,84.39041 332.09793,332.09868 0 0 0 0,-168.78084 332.09793,332.09868 0 0 0 -321.04109,84.39043 z m 0,0 a 332.09793,332.09868 0 0 0 -84.81362,319.64226 332.09793,332.09868 0 0 0 171.02413,-0.4208 332.09793,332.09868 0 0 0 -86.21051,-319.22146 z m 0,0 a 332.09793,332.09868 0 0 0 -319.64147,-84.81379 332.09793,332.09868 0 0 0 0,169.62774 332.09793,332.09868 0 0 0 319.64147,-84.81395 z" />
  </g>
</svg>
