<?xml version="1.0" encoding="UTF-8" standalone="no"?>
<!-- Created with Inkscape (http://www.inkscape.org/) -->

<svg
   width="255"
   height="255"
   viewBox="0 0 67.468749 67.46875"
   version="1.1"
   id="svg1"
   inkscape:version="1.3.2 (091e20e, 2023-11-25, custom)"
   sodipodi:docname="metalogo_colored.svg"
   inkscape:export-filename="metalogo_colored_grouped.png"
   inkscape:export-xdpi="96"
   inkscape:export-ydpi="96"
   xmlns:inkscape="http://www.inkscape.org/namespaces/inkscape"
   xmlns:sodipodi="http://sodipodi.sourceforge.net/DTD/sodipodi-0.dtd"
   xmlns:xlink="http://www.w3.org/1999/xlink"
   xmlns="http://www.w3.org/2000/svg"
   xmlns:svg="http://www.w3.org/2000/svg">
  <sodipodi:namedview
     id="namedview1"
     pagecolor="#505050"
     bordercolor="#eeeeee"
     borderopacity="1"
     inkscape:showpageshadow="0"
     inkscape:pageopacity="0"
     inkscape:pagecheckerboard="0"
     inkscape:deskcolor="#505050"
     inkscape:document-units="mm"
     inkscape:zoom="2"
     inkscape:cx="134"
     inkscape:cy="135.25"
     inkscape:window-width="1440"
     inkscape:window-height="877"
     inkscape:window-x="-8"
     inkscape:window-y="-8"
     inkscape:window-maximized="1"
     inkscape:current-layer="layer1" />
  <defs
     id="defs1">
    <linearGradient
       id="linearGradient31"
       inkscape:collect="always">
      <stop
         style="stop-color:#800000;stop-opacity:1;"
         offset="0"
         id="stop30" />
      <stop
         style="stop-color:#88006f;stop-opacity:1;"
         offset="1"
         id="stop31" />
    </linearGradient>
    <linearGradient
       id="linearGradient28"
       inkscape:collect="always">
      <stop
         style="stop-color:#52009c;stop-opacity:1;"
         offset="0"
         id="stop28" />
      <stop
         style="stop-color:#800000;stop-opacity:1;"
         offset="1"
         id="stop27" />
    </linearGradient>
    <linearGradient
       id="linearGradient7"
       inkscape:collect="always">
      <stop
         style="stop-color:#800000;stop-opacity:1;"
         offset="0"
         id="stop7" />
      <stop
         style="stop-color:#9c0082;stop-opacity:1;"
         offset="1"
         id="stop8" />
    </linearGradient>
    <linearGradient
       inkscape:collect="always"
       xlink:href="#linearGradient7"
       id="linearGradient8"
       x1="13.827849"
       y1="-1.1177878"
       x2="81.561179"
       y2="-1.1177878"
       gradientUnits="userSpaceOnUse" />
    <linearGradient
       inkscape:collect="always"
       xlink:href="#linearGradient7"
       id="linearGradient12"
       x1="8.3774071"
       y1="58.297192"
       x2="59.281395"
       y2="8.9524012"
       gradientUnits="userSpaceOnUse" />
    <linearGradient
       inkscape:collect="always"
       xlink:href="#linearGradient31"
       id="linearGradient14"
       x1="55.61253"
       y1="10.554629"
       x2="55.745403"
       y2="56.592129"
       gradientUnits="userSpaceOnUse"
       gradientTransform="matrix(1,0,0,1.0943727,0,-5.3512229)" />
    <linearGradient
       inkscape:collect="always"
       xlink:href="#linearGradient28"
       id="linearGradient21"
       x1="-47.919884"
       y1="0.2720511"
       x2="-47.617599"
       y2="-34.014797"
       gradientUnits="userSpaceOnUse" />
    <linearGradient
       inkscape:collect="always"
       xlink:href="#linearGradient28"
       id="linearGradient22"
       x1="-47.439598"
       y1="-16.622267"
       x2="-47.552219"
       y2="36.370338"
       gradientUnits="userSpaceOnUse" />
  </defs>
  <g
     inkscape:label="Layer 1"
     inkscape:groupmode="layer"
     id="layer1">
    <g
       id="g31">
      <g
         id="g10"
         style="fill:url(#linearGradient12)"
         transform="matrix(0.97920923,0,0,1.1047102,-0.23261873,-3.7854487)">
        <path
           id="rect5"
           style="fill:url(#linearGradient22);fill-opacity:1;stroke-width:0.264583"
           transform="rotate(-133.79596)"
           d="m -50.357255,3.4673681 h 5.820833 c 0.732895,0 1.322916,0.5900208 1.322916,1.3229167 V 31.643866 c 0,0.732896 -0.590021,1.322917 -1.322916,1.322917 h -5.820833 c -0.732896,0 -1.322917,-0.590021 -1.322917,-1.322917 V 4.7902848 c 0,-0.7328959 0.590021,-1.3229167 1.322917,-1.3229167 z" />
        <path
           id="rect5-2"
           style="fill:url(#linearGradient21);fill-opacity:1;stroke-width:0.264583"
           transform="rotate(-133.79596)"
           d="m -50.369356,-30.963367 h 5.820833 c 0.732896,0 1.322917,0.59002 1.322917,1.322916 v 27.5176744 c 0,0.7328958 -0.590021,1.3229166 -1.322917,1.3229166 h -5.820833 c -0.732895,0 -1.322916,-0.5900208 -1.322916,-1.3229166 V -29.640451 c 0,-0.732896 0.590021,-1.322916 1.322916,-1.322916 z" />
      </g>
      <path
         id="rect4"
         style="fill:url(#linearGradient14);stroke-width:0.276786"
         d="m 52.437529,6.078052 h 5.821416 c 0.732896,0 1.322917,0.6457029 1.322917,1.4477643 V 55.255321 c 0,0.80206 -0.590021,1.447763 -1.322917,1.447763 h -5.821416 c -0.732896,0 -1.322917,-0.645703 -1.322917,-1.447763 V 7.5258163 c 0,-0.8020614 0.590021,-1.4477643 1.322917,-1.4477643 z" />
      <path
         id="rect3"
         style="fill:url(#linearGradient8);stroke-width:0.264583"
         d="m 15.150766,-5.3511209 h 65.087497 c 0.732895,0 1.322916,0.5900208 1.322916,1.3229166 v 5.8208329 c 0,0.7328959 -0.590021,1.3229167 -1.322916,1.3229167 H 15.150766 c -0.732896,0 -1.322917,-0.5900208 -1.322917,-1.3229167 v -5.8208329 c 0,-0.7328958 0.590021,-1.3229166 1.322917,-1.3229166 z"
         transform="rotate(46.342562)" />
    </g>
  </g>
</svg>
