<?xml version="1.0" encoding="UTF-8" standalone="no"?>
<!-- Created with Inkscape (http://www.inkscape.org/) -->

<svg
   width="1360"
   height="480"
   viewBox="0 0 359.83333 127"
   version="1.1"
   id="svg1"
   xml:space="preserve"
   inkscape:version="1.3.2 (091e20e, 2023-11-25, custom)"
   sodipodi:docname="banner-white.svg"
   xmlns:inkscape="http://www.inkscape.org/namespaces/inkscape"
   xmlns:sodipodi="http://sodipodi.sourceforge.net/DTD/sodipodi-0.dtd"
   xmlns="http://www.w3.org/2000/svg"
   xmlns:svg="http://www.w3.org/2000/svg"><sodipodi:namedview
     id="namedview1"
     pagecolor="#505050"
     bordercolor="#eeeeee"
     borderopacity="1"
     inkscape:showpageshadow="0"
     inkscape:pageopacity="0"
     inkscape:pagecheckerboard="0"
     inkscape:deskcolor="#505050"
     inkscape:document-units="mm"
     inkscape:zoom="0.40252411"
     inkscape:cx="591.26894"
     inkscape:cy="388.79659"
     inkscape:window-width="1440"
     inkscape:window-height="877"
     inkscape:window-x="-8"
     inkscape:window-y="-8"
     inkscape:window-maximized="1"
     inkscape:current-layer="layer1" /><defs
     id="defs1"><rect
       x="0"
       y="772.08368"
       width="334"
       height="186.35847"
       id="rect1-7" /></defs><g
     inkscape:label="Layer 1"
     inkscape:groupmode="layer"
     id="layer1"><rect
       style="fill:#e8e3e3;stroke-width:0.264583;fill-opacity:1"
       id="rect1"
       width="359.83334"
       height="127"
       x="0"
       y="0" /><g
       inkscape:label="Layer 1"
       id="layer1-1"
       transform="matrix(2.0242596,0,0,2.2598619,186.11591,-455.506)"
       style="fill:#000000"><text
         xml:space="preserve"
         transform="matrix(0.26458332,0,0,0.26458332,3.306071e-6,1.9833149)"
         id="text1"
         style="font-size:29.3333px;font-family:NocturnalSubway;-inkscape-font-specification:NocturnalSubway;text-align:center;white-space:pre;shape-inside:url(#rect1-7);display:inline;fill:#000000"
         inkscape:label="text1"><tspan
           x="37.126739"
           y="798.90851"
           id="tspan1">Metatobac
</tspan><tspan
           x="107.39469"
           y="835.57514"
           id="tspan8">2024
</tspan><tspan
           x="23.149434"
           y="872.24177"
           id="tspan9">freethem-07
</tspan><tspan
           x="60.652046"
           y="908.90839"
           id="tspan10">Fonts by </tspan><tspan
           x="59.59604"
           y="945.57502"
           id="tspan11">Yutaone 
</tspan><tspan
           x="0"
           y="982.24164"
           id="tspan12">
</tspan></text><g
         id="g49"
         style="display:inline;fill:#000000"
         transform="matrix(1,0,0,22.88411,-88.370827,-6544.2403)"><path
           id="rect4"
           style="fill:#000000;stroke-width:0.264585"
           d="M 3.306071e-6,295.05927 H 1.0545878 v 1.94085 H 3.306071e-6 Z" /><path
           id="rect5"
           style="fill:#000000;stroke-width:0.264585"
           d="M 1.5867512,295.05927 H 2.112745 v 1.94085 H 1.5867512 Z" /><path
           id="rect6"
           style="fill:#000000;stroke-width:0.264585"
           d="m 3.1734993,295.05927 h 0.5435269 v 1.94083 H 3.1734993 Z" /><path
           id="rect7"
           style="fill:#000000;stroke-width:0.264585"
           d="M 5.8122349,295.05927 H 7.933743 v 1.94083 H 5.8122349 Z" /><path
           id="rect8"
           style="fill:#000000;stroke-width:0.264585"
           d="m 8.4676952,295.05927 h 1.6179128 v 1.94082 H 8.4676952 Z" /><path
           id="rect9"
           style="fill:#000000;stroke-width:0.264585"
           d="m 10.581518,295.05927 h 0.539304 v 1.94084 h -0.539304 z" /><path
           id="rect10"
           style="fill:#000000;stroke-width:0.264585"
           d="m 11.647729,295.05927 h 0.514508 v 1.94084 h -0.514508 z" /><path
           id="rect11"
           style="fill:#000000;stroke-width:0.264585"
           d="m 12.701541,295.05927 h 1.053812 v 1.94084 h -1.053812 z" /><path
           id="rect12"
           style="fill:#000000;stroke-width:0.264585"
           d="m 14.821564,295.05927 h 0.526906 v 1.94084 h -0.526906 z" /><path
           id="rect13"
           style="fill:#000000;stroke-width:0.264585"
           d="M 17.462294,295.05927 H 17.9892 v 1.94084 h -0.526906 z" /><path
           id="rect14"
           style="fill:#000000;stroke-width:0.264585"
           d="m 19.049212,295.05927 h 2.113823 v 1.94084 h -2.113823 z" /><path
           id="rect15"
           style="fill:#000000;stroke-width:0.264585"
           d="m 21.689939,295.05927 h 0.539304 v 1.94084 h -0.539304 z" /><path
           id="rect16"
           style="fill:#000000;stroke-width:0.264585"
           d="m 23.289255,295.05927 h 0.526906 v 1.94084 h -0.526906 z" /><path
           id="rect17"
           style="fill:#000000;stroke-width:0.264585"
           d="m 24.863775,295.05927 h 0.533105 v 1.94084 h -0.533105 z" /><path
           id="rect18"
           style="fill:#000000;stroke-width:0.264585"
           d="m 25.936184,295.05927 h 1.06621 v 1.94084 h -1.06621 z" /><path
           id="rect19"
           style="fill:#000000;stroke-width:0.264585"
           d="m 29.110018,295.05927 h 0.526906 v 1.94084 h -0.526906 z" /><path
           id="rect20"
           style="fill:#000000;stroke-width:0.264585"
           d="m 30.690735,295.05927 h 2.120022 v 1.94084 h -2.120022 z" /><path
           id="rect21"
           style="fill:#000000;stroke-width:0.264585"
           d="m 33.343868,295.05927 h 0.514509 v 1.94084 h -0.514509 z" /><path
           id="rect22"
           style="fill:#000000;stroke-width:0.264585"
           d="m 34.930782,295.05927 h 0.526906 v 1.94084 h -0.526906 z" /><path
           id="rect23"
           style="fill:#000000;stroke-width:0.264585"
           d="m 37.050808,295.05927 h 2.107624 v 1.94084 h -2.107624 z" /><path
           id="rect24"
           style="fill:#000000;stroke-width:0.264585"
           d="m 39.685333,295.05927 h 0.533105 v 1.94084 h -0.533105 z" /><path
           id="rect25"
           style="fill:#000000;stroke-width:0.264585"
           d="m 40.739147,295.05927 h 0.539304 v 1.94084 h -0.539304 z" /><path
           id="rect26"
           style="fill:#000000;stroke-width:0.264585"
           d="m 42.332264,295.05927 h 0.533105 v 1.94084 h -0.533105 z" /><path
           id="rect27"
           style="fill:#000000;stroke-width:0.264585"
           d="m 44.979191,295.05927 h 1.06621 v 1.94084 h -1.06621 z" /><path
           id="rect28"
           style="fill:#000000;stroke-width:0.264585"
           d="m 46.572308,295.05927 h 0.526906 v 1.94084 h -0.526906 z" /><path
           id="rect29"
           style="fill:#000000;stroke-width:0.264585"
           d="m 48.146832,295.05927 h 0.539303 v 1.94084 h -0.539303 z" /><path
           id="rect30"
           style="fill:#000000;stroke-width:0.264585"
           d="m 49.206841,295.05927 h 1.060011 v 1.94084 h -1.060011 z" /><path
           id="rect31"
           style="fill:#000000;stroke-width:0.264585"
           d="m 52.386871,295.05927 h 0.533105 v 1.94084 h -0.533105 z" /><path
           id="rect32"
           style="fill:#000000;stroke-width:0.264585"
           d="m 55.027603,295.05927 h 0.526906 v 1.94084 h -0.526906 z" /><path
           id="rect33"
           style="fill:#000000;stroke-width:0.264585"
           d="m 56.093811,295.05927 h 1.047613 v 1.94084 h -1.047613 z" /><path
           id="rect34"
           style="fill:#000000;stroke-width:0.264585"
           d="m 58.207634,295.05927 h 0.533105 v 1.94084 h -0.533105 z" /><path
           id="rect35"
           style="fill:#000000;stroke-width:0.264585"
           d="m 59.788353,295.05927 h 1.060011 v 1.94084 h -1.060011 z" /><path
           id="rect36"
           style="fill:#000000;stroke-width:0.264585"
           d="m 61.38147,295.05927 h 1.586917 v 1.94084 H 61.38147 Z" /><path
           id="rect37"
           style="fill:#000000;stroke-width:0.264585"
           d="m 64.028404,295.05927 h 0.533105 v 1.94084 h -0.533105 z" /><path
           id="rect38"
           style="fill:#000000;stroke-width:0.263728"
           d="m 65.088409,295.05927 h 1.580719 v 1.94084 h -1.580719 z" /><path
           id="rect39"
           style="fill:#000000;stroke-width:0.263728"
           d="m 67.202232,295.05927 h 2.120023 v 1.94084 h -2.120023 z" /><path
           id="rect40"
           style="fill:#000000;stroke-width:0.264585"
           d="m 69.855362,295.05927 h 0.520707 v 1.94084 h -0.520707 z" /><path
           id="rect41"
           style="fill:#000000;stroke-width:0.263728"
           d="m 71.436081,295.05927 h 1.060011 v 1.94084 h -1.060011 z" /><path
           id="rect42"
           style="fill:#000000;stroke-width:0.264585"
           d="m 74.076813,295.05927 h 0.539304 v 1.94084 h -0.539304 z" /><path
           id="rect43"
           style="fill:#000000;stroke-width:0.264585"
           d="m 75.669922,295.05927 h 0.539304 v 1.94084 h -0.539304 z" /><path
           id="rect44"
           style="fill:#000000;stroke-width:0.264585"
           d="m 77.250648,295.05927 h 0.539303 v 1.94085 h -0.539303 z" /><path
           id="rect45"
           style="fill:#000000;stroke-width:0.264585"
           d="m 78.310654,295.05927 h 2.126221 v 1.94084 h -2.126221 z" /><path
           id="rect46"
           style="fill:#000000;stroke-width:0.264585"
           d="m 81.490685,295.05927 h 1.060011 v 1.94084 h -1.060011 z" /><path
           id="rect47"
           style="fill:#000000;stroke-width:0.264585"
           d="m 84.137619,295.05927 h 1.586917 v 1.94084 h -1.586917 z" /><path
           id="rect48"
           style="fill:#000000;stroke-width:0.264585"
           d="m 86.257637,295.05927 h 0.533105 v 1.94084 h -0.533105 z" /><path
           id="rect49"
           style="fill:#000000;stroke-width:0.264585"
           d="m 87.305252,295.05927 h 1.065578 v 1.94072 h -1.065578 z" /></g></g></g></svg>
